<svg role="img" viewBox="0 0 24 24" xmlns="http://www.w3.org/2000/svg"><title>Instagram</title><path d="M12 0C8.741 0 8.333.012 7.052.07 5.771.13 4.861.412 4.173.74a5.425 5.425 0 0 0-1.96 1.27A5.425 5.425 0 0 0 .742 3.973c-.328.688-.61 1.598-.669 2.879C.014 8.133 0 8.741 0 12s.012 3.867.07 5.148c.06 1.281.341 2.19.67 2.878a5.425 5.425 0 0 0 1.27 1.96 5.427 5.427 0 0 0 1.959 1.27c.688.328 1.597.61 2.879.669 1.281.059 1.689.07 4.948.07s3.867-.012 5.148-.07c1.281-.06 2.19-.341 2.878-.67a5.428 5.428 0 0 0 1.96-1.27 5.428 5.428 0 0 0 1.27-1.959c.328-.688.61-1.597.669-2.879.059-1.281.07-1.689.07-4.948s-.012-3.867-.07-5.148c-.06-1.281-.341-2.19-.67-2.878a5.425 5.425 0 0 0-1.27-1.96A5.425 5.425 0 0 0 19.827.742c-.688-.328-1.597-.61-2.879-.669C15.133.014 14.525 0 12 0Zm0 5.838A6.162 6.162 0 1 1 5.838 12 6.169 6.169 0 0 1 12 5.838Zm7.23-3.299a1.44 1.44 0 1 1-1.439-1.439 1.439 1.439 0 0 1 1.44 1.44ZM12 7.162A4.84 4.84 0 1 0 16.84 12 4.846 4.846 0 0 0 12 7.162Z" fill="url(#igGradient)"></path><defs><linearGradient id="igGradient" x1="0" x2="24" y1="0" y2="24" gradientUnits="userSpaceOnUse"><stop stop-color="#fd5"></stop><stop offset=".5" stop-color="#ff543e"></stop><stop offset="1" stop-color="#c837ab"></stop></linearGradient></defs></svg>
