<svg role="img" viewBox="0 0 24 24" xmlns="http://www.w3.org/2000/svg"><title>YouTube</title><path fill="#FF0000" d="M23.498 6.186a2.995 2.995 0 0 0-2.11-2.117C19.298 3.5 12 3.5 12 3.5s-7.298 0-9.388.57a2.996 2.996 0 0 0-2.11 2.117A31.307 31.307 0 0 0 0 12a31.307 31.307 0 0 0 .502 5.814A2.995 2.995 0 0 0 2.612 19.93c2.09.57 9.388.57 9.388.57s7.298 0 9.388-.57a2.994 2.994 0 0 0 2.11-2.116A31.312 31.312 0 0 0 24 12a31.312 31.312 0 0 0-.502-5.814ZM9.75 15.568V8.432L15.818 12l-6.068 3.568Z"></path></svg>
